<?xml version="1.0" encoding="UTF-8" standalone="no"?>
<svg width="160px" height="160px" viewBox="0 0 160 160" version="1.1" xmlns="http://www.w3.org/2000/svg" xmlns:xlink="http://www.w3.org/1999/xlink" xmlns:sketch="http://www.bohemiancoding.com/sketch/ns">
    <!-- Generator: Sketch 3.3 (11970) - http://www.bohemiancoding.com/sketch -->
    <title>icon-domain</title>
    <desc>Created with Sketch.</desc>
    <defs></defs>
    <g id="Welcome" stroke="none" stroke-width="1" fill="none" fill-rule="evenodd" sketch:type="MSPage">
        <g id="Desktop" sketch:type="MSArtboardGroup" transform="translate(-83.000000, -85.000000)">
            <g id="HOMEPAGE" sketch:type="MSLayerGroup" transform="translate(83.000000, 85.000000)">
                <g id="homepage-slices" sketch:type="MSShapeGroup">
                    <g id="icon-domain">
                        <g id="icon" transform="translate(10.000000, 9.500000)">
                            <g id="Welcome">
                                <g id="Desktop">
                                    <g id="Imported-Layers">
                                        <path d="M49.3464557,75.8766226 L53.3320253,63.595434 L57.3158228,75.8766226 L59.6887342,75.8766226 L64.5586076,60.5883208 L62.0926582,60.5883208 L58.3596203,72.7746226 L54.3439241,60.5883208 L52.3192405,60.5883208 L48.3035443,72.7746226 L44.5705063,60.5883208 L42.1036709,60.5883208 L46.9753165,75.8766226 L49.3464557,75.8766226" id="Fill-1" fill="#2D2D2D"></path>
                                        <path d="M72.5598734,75.8766226 L76.545443,63.595434 L80.5301266,75.8766226 L82.9021519,75.8766226 L87.7720253,60.5883208 L85.3060759,60.5883208 L81.573038,72.7746226 L77.5573418,60.5883208 L75.5326582,60.5883208 L71.516962,72.7746226 L67.7839241,60.5883208 L65.3179747,60.5883208 L70.1887342,75.8766226 L72.5598734,75.8766226" id="Fill-2" fill="#2D2D2D"></path>
                                        <path d="M95.7741772,75.8766226 L99.7588608,63.595434 L103.743544,75.8766226 L106.11557,75.8766226 L110.986329,60.5883208 L108.519494,60.5883208 L104.786456,72.7746226 L100.770759,60.5883208 L98.746962,60.5883208 L94.7303797,72.7746226 L90.9973418,60.5883208 L88.5313924,60.5883208 L93.4021519,75.8766226 L95.7741772,75.8766226" id="Fill-3" fill="#2D2D2D"></path>
                                        <path d="M113.610886,76.1932075 C114.559873,76.1932075 115.350253,75.4021887 115.350253,74.452434 C115.350253,73.503566 114.559873,72.7116604 113.610886,72.7116604 C112.662785,72.7116604 111.871519,73.503566 111.871519,74.452434 C111.871519,75.4021887 112.662785,76.1932075 113.610886,76.1932075" id="Fill-4" fill="#2D2D2D"></path>
                                        <path d="M29.0996203,56.9861698 L29.0996203,123.783811 C29.9697468,124.451566 30.8558228,125.098925 31.7578481,125.725 L31.7578481,84.6496604 L135.686582,84.6496604 C135.877975,83.7699623 136.045443,82.8813962 136.201392,81.989283 L31.7578481,81.989283 L31.7578481,56.9861698 C31.7578481,53.9790566 34.2025316,51.533283 37.2063291,51.533283 L134.530253,51.533283 C134.268861,50.6385094 133.988861,49.7526038 133.692025,48.8729057 L37.2063291,48.8729057 C32.7360759,48.8729057 29.0996203,52.5123019 29.0996203,56.9861698" id="Fill-5" fill="#959595"></path>
                                        <path d="M69.9618987,140.341113 C108.517722,140.341113 139.88481,108.947774 139.88481,70.3616604 C139.88481,31.7746604 108.517722,0.38309434 69.9618987,0.38309434 C31.406962,0.38309434 0.0398734177,31.7746604 0.0398734177,70.3616604 C0.0398734177,108.947774 31.406962,140.341113 69.9618987,140.341113 L69.9618987,140.341113 L69.9618987,140.341113 Z M133.692025,48.8729057 C133.988861,49.7526038 134.268861,50.6385094 134.530253,51.533283 C136.274051,57.5129245 137.226582,63.826 137.226582,70.3616604 C137.226582,74.328283 136.862405,78.2088868 136.201392,81.989283 C136.045443,82.8813962 135.877975,83.7699623 135.686582,84.6496604 C129.120759,114.927415 102.153038,137.680736 69.9618987,137.680736 C55.7802532,137.680736 42.6175949,133.253868 31.7578481,125.725 C30.8558228,125.098925 29.9697468,124.451566 29.0996203,123.783811 C13.0634177,111.468038 2.69810127,92.1084717 2.69810127,70.3616604 C2.69810127,33.2414151 32.8725316,3.0434717 69.9618987,3.0434717 C99.5444304,3.0434717 124.708987,22.2620377 133.692025,48.8729057 L133.692025,48.8729057 L133.692025,48.8729057 Z" id="Fill-6" fill="#2D2D2D"></path>
                                    </g>
                                </g>
                            </g>
                        </g>
                    </g>
                </g>
            </g>
        </g>
    </g>
</svg>