<?xml version="1.0" encoding="UTF-8" standalone="no"?>
<svg width="160px" height="160px" viewBox="0 0 160 160" version="1.1" xmlns="http://www.w3.org/2000/svg" xmlns:xlink="http://www.w3.org/1999/xlink" xmlns:sketch="http://www.bohemiancoding.com/sketch/ns">
    <!-- Generator: Sketch 3.3 (11970) - http://www.bohemiancoding.com/sketch -->
    <title>icon-analytics</title>
    <desc>Created with Sketch.</desc>
    <defs></defs>
    <g id="Welcome" stroke="none" stroke-width="1" fill="none" fill-rule="evenodd" sketch:type="MSPage">
        <g id="Desktop" sketch:type="MSArtboardGroup" transform="translate(-782.000000, -85.000000)">
            <g id="HOMEPAGE" sketch:type="MSLayerGroup" transform="translate(83.000000, 85.000000)">
                <g id="homepage-slices" sketch:type="MSShapeGroup">
                    <g id="icon-analytics" transform="translate(699.000000, 0.000000)">
                        <g id="icon" transform="translate(10.000000, 41.000000)">
                            <g id="Welcome">
                                <g id="Desktop">
                                    <g id="Imported-Layers">
                                        <path d="M13.0541772,88.6732195 C13.285443,88.8353902 13.5512658,88.913374 13.8153165,88.913374 C14.2344304,88.913374 14.6455696,88.7157561 14.9043038,88.3462195 L48.6921519,40.0858049 L78.8896203,61.2309187 C79.4894937,61.6509675 80.3197468,61.5065203 80.7406329,60.9048049 L116.36,10.0283902 C116.781772,9.42756098 116.63557,8.59809756 116.033924,8.17804878 C115.433165,7.75622764 114.60557,7.90156098 114.182911,8.5041626 L79.3255696,58.2905772 L49.1281013,37.1454634 C48.5291139,36.7236423 47.6997468,36.8698618 47.2779747,37.4715772 L12.7272152,86.8219919 C12.3063291,87.4228211 12.4525316,88.2522846 13.0541772,88.6732195" id="Fill-1" fill="#2D2D2D"></path>
                                        <path d="M101.089367,7.11817886 L119.800633,3.81804878 L123.101266,22.5332602 C123.21557,23.1775122 123.776456,23.6312358 124.408228,23.6312358 C124.485316,23.6312358 124.563291,23.6250325 124.641266,23.6117398 C125.364304,23.4832439 125.846329,22.7946829 125.71962,22.0706748 L122.188608,2.04746341 C122.060127,1.32345528 121.365443,0.840487805 120.647722,0.96898374 L100.627722,4.49952033 C99.9046835,4.62801626 99.4217722,5.31657724 99.5493671,6.03969919 C99.676962,6.76370732 100.373418,7.24756098 101.089367,7.11817886" id="Fill-2" fill="#2D2D2D"></path>
                                        <path d="M29.9640506,93.1014553 L2.29987342,93.1014553 C1.56620253,93.1014553 0.970759494,93.6960813 0.970759494,94.4307236 L0.970759494,106.947114 C0.970759494,107.68087 1.56620253,108.276382 2.29987342,108.276382 L29.9640506,108.276382 C30.6977215,108.276382 31.2931646,107.68087 31.2931646,106.947114 L31.2931646,94.4307236 C31.2931646,93.6960813 30.6977215,93.1014553 29.9640506,93.1014553 L29.9640506,93.1014553 L29.9640506,93.1014553 Z M3.62898734,95.7599919 L28.6349367,95.7599919 L28.6349367,105.617846 L3.62898734,105.617846 L3.62898734,95.7599919 L3.62898734,95.7599919 Z" id="Fill-3" fill="#959595"></path>
                                        <path d="M64.4829114,66.0924959 L36.8187342,66.0924959 C36.0850633,66.0924959 35.4896203,66.6880081 35.4896203,67.4217642 L35.4896203,106.947114 C35.4896203,107.68087 36.0850633,108.276382 36.8187342,108.276382 L64.4829114,108.276382 C65.2165823,108.276382 65.8120253,107.68087 65.8120253,106.947114 L65.8120253,67.4217642 C65.8120253,66.6880081 65.2165823,66.0924959 64.4829114,66.0924959 L64.4829114,66.0924959 L64.4829114,66.0924959 Z M38.1478481,68.7510325 L63.1537975,68.7510325 L63.1537975,105.617846 L38.1478481,105.617846 L38.1478481,68.7510325 L38.1478481,68.7510325 Z" id="Fill-4" fill="#959595"></path>
                                        <path d="M100.858101,75.9733902 L73.1948101,75.9733902 C72.4602532,75.9733902 71.8656962,76.5689024 71.8656962,77.3026585 L71.8656962,106.947114 C71.8656962,107.68087 72.4602532,108.276382 73.1948101,108.276382 L100.858101,108.276382 C101.591772,108.276382 102.187215,107.68087 102.187215,106.947114 L102.187215,77.3026585 C102.187215,76.5689024 101.591772,75.9733902 100.858101,75.9733902 L100.858101,75.9733902 L100.858101,75.9733902 Z M74.5239241,78.6319268 L99.5298734,78.6319268 L99.5298734,105.616959 L74.5239241,105.616959 L74.5239241,78.6319268 L74.5239241,78.6319268 Z" id="Fill-5" fill="#959595"></path>
                                        <path d="M138.242532,33.8143171 L110.578354,33.8143171 C109.844684,33.8143171 109.249241,34.4098293 109.249241,35.1435854 L109.249241,106.947114 C109.249241,107.68087 109.844684,108.276382 110.578354,108.276382 L138.242532,108.276382 C138.976203,108.276382 139.571646,107.68087 139.571646,106.947114 L139.571646,35.1435854 C139.571646,34.4098293 138.976203,33.8143171 138.242532,33.8143171 L138.242532,33.8143171 L138.242532,33.8143171 Z M111.907468,36.4728537 L136.913418,36.4728537 L136.913418,105.616959 L111.907468,105.616959 L111.907468,36.4728537 L111.907468,36.4728537 Z" id="Fill-6" fill="#959595"></path>
                                    </g>
                                </g>
                            </g>
                        </g>
                    </g>
                </g>
            </g>
        </g>
    </g>
</svg>