<?xml version="1.0" encoding="UTF-8" standalone="no"?>
<svg width="160px" height="160px" viewBox="0 0 160 160" version="1.1" xmlns="http://www.w3.org/2000/svg" xmlns:xlink="http://www.w3.org/1999/xlink" xmlns:sketch="http://www.bohemiancoding.com/sketch/ns">
    <!-- Generator: Sketch 3.3 (11970) - http://www.bohemiancoding.com/sketch -->
    <title>icon-support</title>
    <desc>Created with Sketch.</desc>
    <defs></defs>
    <g id="Welcome" stroke="none" stroke-width="1" fill="none" fill-rule="evenodd" sketch:type="MSPage">
        <g id="Desktop" sketch:type="MSArtboardGroup" transform="translate(-432.000000, -85.000000)">
            <g id="HOMEPAGE" sketch:type="MSLayerGroup" transform="translate(83.000000, 85.000000)">
                <g id="homepage-slices" sketch:type="MSShapeGroup">
                    <g id="icon-support" transform="translate(349.000000, 0.000000)">
                        <g id="icon" transform="translate(10.000000, 37.000000)">
                            <g id="Welcome">
                                <g id="Desktop">
                                    <g id="Imported-Layers">
                                        <path d="M16.8325786,94.4425865 C16.6626415,94.4425865 16.4900629,94.4097594 16.3271698,94.3414436 C15.8332075,94.135609 15.5118239,93.6503008 15.5118239,93.1117594 L15.5118239,71.8557895 L6.67509434,71.8557895 C3.14603774,71.8557895 0.275597484,68.9634586 0.275597484,65.4074887 L0.275597484,6.66123308 C0.275597484,3.10526316 3.14603774,0.212045113 6.67509434,0.212045113 L99.3612579,0.212045113 C102.890314,0.212045113 105.760755,3.10526316 105.760755,6.66123308 L105.760755,32.3355489 C105.760755,33.0701654 105.169057,33.6663759 104.44,33.6663759 C103.710943,33.6663759 103.119245,33.0701654 103.119245,32.3355489 L103.119245,6.66123308 C103.119245,4.5727218 101.433082,2.87369925 99.3612579,2.87369925 L6.67509434,2.87369925 C4.60238994,2.87369925 2.91710692,4.5727218 2.91710692,6.66123308 L2.91710692,65.4074887 C2.91710692,67.4951128 4.60238994,69.1941353 6.67509434,69.1941353 L16.8325786,69.1941353 C17.5616352,69.1941353 18.1533333,69.7903459 18.1533333,70.5249624 L18.1533333,89.8991429 L38.3142138,69.5845113 C38.5616352,69.3343158 38.8979874,69.1941353 39.2475472,69.1941353 L48.6618868,69.1941353 C49.3909434,69.1941353 49.9826415,69.7903459 49.9826415,70.5249624 C49.9826415,71.2595789 49.3909434,71.8557895 48.6618868,71.8557895 L39.7943396,71.8557895 L17.7667925,94.0530977 C17.5140881,94.3077293 17.1759748,94.4425865 16.8325786,94.4425865" id="Fill-1" fill="#959595"></path>
                                        <path d="M122.801132,117.883774 C122.457736,117.883774 122.119623,117.748917 121.866918,117.494286 L100.262013,95.7237293 L59.0271698,95.7237293 C56.0361006,95.7237293 53.6023899,93.2714586 53.6023899,90.2575789 L53.6023899,42.7807669 C53.6023899,39.766 56.0361006,37.3146165 59.0271698,37.3146165 L133.932453,37.3146165 C136.924403,37.3146165 139.358113,39.766 139.358113,42.7807669 L139.358113,90.2575789 C139.358113,93.2714586 136.924403,95.7237293 133.932453,95.7237293 L124.121887,95.7237293 L124.121887,116.552947 C124.121887,117.091489 123.800503,117.576797 123.306541,117.782632 C123.142767,117.850947 122.971069,117.883774 122.801132,117.883774 L122.801132,117.883774 L122.801132,117.883774 Z M59.0271698,39.9762707 C57.4924528,39.9762707 56.2438994,41.2343459 56.2438994,42.7807669 L56.2438994,90.2575789 C56.2438994,91.804 57.4924528,93.0620752 59.0271698,93.0620752 L100.808805,93.0620752 C101.159245,93.0620752 101.494717,93.2022556 101.743019,93.4515639 L121.480377,113.340331 L121.480377,94.3929023 C121.480377,93.6573985 122.072075,93.0620752 122.801132,93.0620752 L133.932453,93.0620752 C135.46717,93.0620752 136.716604,91.804 136.716604,90.2575789 L136.716604,42.7807669 C136.716604,41.2343459 135.46717,39.9762707 133.932453,39.9762707 L59.0271698,39.9762707 L59.0271698,39.9762707 Z" id="Fill-2" fill="#2D2D2D"></path>
                                        <path d="M82.1615094,63.4698045 C84.1003774,63.4698045 85.6720755,65.0534887 85.6720755,67.0071429 C85.6720755,68.9599098 84.1003774,70.543594 82.1615094,70.543594 C80.2226415,70.543594 78.6518239,68.9599098 78.6518239,67.0071429 C78.6518239,65.0534887 80.2226415,63.4698045 82.1615094,63.4698045 M82.1615094,60.8081504 C78.7698113,60.8081504 76.0103145,63.5886917 76.0103145,67.0071429 C76.0103145,70.4247068 78.7698113,73.2052481 82.1615094,73.2052481 C85.5540881,73.2052481 88.3135849,70.4247068 88.3135849,67.0071429 C88.3135849,63.5886917 85.5540881,60.8081504 82.1615094,60.8081504" id="Fill-3" fill="#2D2D2D"></path>
                                        <path d="M96.4793711,63.4698045 C98.418239,63.4698045 99.9899371,65.0534887 99.9899371,67.0071429 C99.9899371,68.9599098 98.418239,70.543594 96.4793711,70.543594 C94.5413836,70.543594 92.9696855,68.9599098 92.9696855,67.0071429 C92.9696855,65.0534887 94.5413836,63.4698045 96.4793711,63.4698045 M96.4793711,60.8081504 C93.087673,60.8081504 90.3281761,63.5886917 90.3281761,67.0071429 C90.3281761,70.4247068 93.087673,73.2052481 96.4793711,73.2052481 C99.8719497,73.2052481 102.631447,70.4247068 102.631447,67.0071429 C102.631447,63.5886917 99.8719497,60.8081504 96.4793711,60.8081504" id="Fill-4" fill="#2D2D2D"></path>
                                        <path d="M110.797233,63.4698045 C112.736101,63.4698045 114.307799,65.0534887 114.307799,67.0071429 C114.307799,68.9599098 112.736101,70.543594 110.797233,70.543594 C108.859245,70.543594 107.287547,68.9599098 107.287547,67.0071429 C107.287547,65.0534887 108.859245,63.4698045 110.797233,63.4698045 M110.797233,60.8081504 C107.405535,60.8081504 104.646038,63.5886917 104.646038,67.0071429 C104.646038,70.4247068 107.405535,73.2052481 110.797233,73.2052481 C114.189811,73.2052481 116.949308,70.4247068 116.949308,67.0071429 C116.949308,63.5886917 114.189811,60.8081504 110.797233,60.8081504" id="Fill-5" fill="#2D2D2D"></path>
                                    </g>
                                </g>
                            </g>
                        </g>
                    </g>
                </g>
            </g>
        </g>
    </g>
</svg>